<?xml version="1.0" encoding="UTF-8" standalone="no"?>
<!-- Created with Inkscape (http://www.inkscape.org/) -->

<svg
   width="363.2988"
   height="165.29321"
   viewBox="0 0 363.2988 165.29321"
   version="1.1"
   id="svg1"
   inkscape:export-filename="logo.svg"
   inkscape:export-xdpi="300"
   inkscape:export-ydpi="300"
   sodipodi:docname="fixedNavLogo.svg"
   inkscape:version="1.3 (0e150ed6c4, 2023-07-21)"
   xmlns:inkscape="http://www.inkscape.org/namespaces/inkscape"
   xmlns:sodipodi="http://sodipodi.sourceforge.net/DTD/sodipodi-0.dtd"
   xmlns="http://www.w3.org/2000/svg"
   xmlns:svg="http://www.w3.org/2000/svg">
  <sodipodi:namedview
     id="namedview1"
     pagecolor="#000000"
     bordercolor="#000000"
     borderopacity="0.25"
     inkscape:showpageshadow="2"
     inkscape:pageopacity="0.0"
     inkscape:pagecheckerboard="0"
     inkscape:deskcolor="#d1d1d1"
     inkscape:document-units="px"
     showguides="true"
     inkscape:zoom="1.6212548"
     inkscape:cx="224.51745"
     inkscape:cy="156.97718"
     inkscape:window-width="1920"
     inkscape:window-height="1009"
     inkscape:window-x="1912"
     inkscape:window-y="-8"
     inkscape:window-maximized="1"
     inkscape:current-layer="layer1"
     inkscape:clip-to-page="false">
    <sodipodi:guide
       position="-69.334342,1680.2772"
       orientation="0,-1"
       id="guide4"
       inkscape:locked="false" />
  </sodipodi:namedview>
  <defs
     id="defs1" />
  <g
     inkscape:label="Layer 1"
     inkscape:groupmode="layer"
     id="layer1"
     transform="translate(-752.13069,-590.67889)">
    <path
       d="m 762.8351,638.05624 v -40.14151 h 2.6761 c 1.80345,0 2.6761,-0.87264 2.6761,-2.61793 0,-1.86163 -0.87265,-2.79245 -2.6761,-2.79245 h -10.64623 c -1.80346,0 -2.73428,0.93082 -2.73428,2.79245 0,1.74529 0.93082,2.61793 2.73428,2.61793 h 2.61792 v 40.14151 c 0,1.62893 1.04717,2.6761 2.6761,2.6761 1.62894,0 2.67611,-1.04717 2.67611,-2.6761 z m 22.86326,0 v -43.22485 c 0,-1.62893 -1.04717,-2.6761 -2.6761,-2.6761 -1.62893,0 -2.6761,1.04717 -2.6761,2.6761 v 18.50001 h -4.53774 v -18.50001 c 0,-1.62893 -1.04717,-2.6761 -2.6761,-2.6761 -1.62893,0 -2.6761,1.04717 -2.6761,2.6761 v 43.22485 c 0,1.62893 1.04717,2.6761 2.6761,2.6761 1.62893,0 2.6761,-1.04717 2.6761,-2.6761 V 618.6836 h 4.53774 v 19.37264 c 0,1.62893 1.04717,2.6761 2.6761,2.6761 1.62893,0 2.6761,-1.04717 2.6761,-2.6761 z m 17.68554,-0.34906 c 0,-1.62893 -1.04717,-2.6761 -2.6761,-2.6761 h -5.52673 V 618.6836 h 2.90881 c 1.68711,0 2.50157,-0.93082 2.50157,-2.73428 0,-1.80346 -0.81446,-2.6761 -2.50157,-2.6761 h -2.90881 v -15.35849 h 5.23585 c 1.57076,0 2.6761,-1.10535 2.6761,-2.73428 0,-1.57075 -1.10534,-2.6761 -2.6761,-2.6761 h -7.38836 c -1.91981,0 -3.19969,1.27988 -3.19969,3.19969 v 41.47956 c 0,1.91981 1.27988,3.19968 3.19969,3.19968 h 7.67924 c 1.62893,0 2.6761,-1.04717 2.6761,-2.6761 z"
       id="text2"
       style="-inkscape-font-specification:'Steelfish Rounded';fill:#ffffff;fill-opacity:0.701961;stroke-width:2.73347;stroke-linejoin:bevel;stroke-opacity:0.611765;paint-order:stroke markers fill"
       aria-label="THE " />
    <path
       d="m 837.40921,657.97489 c 0,3.072 -1.248,4.608 -3.648,4.608 -2.496,0 -3.744,-1.536 -3.744,-4.608 v -53.856 c 0,-3.072 1.248,-4.512 3.84,-4.512 2.592,0 3.552,1.536 3.552,4.512 v 10.56 c 0,2.4 1.632,4.032 4.032,4.032 2.4,0 4.032,-1.632 4.032,-4.032 v -10.56 c 0,-9.12 -3.936,-13.44 -12,-13.44 -8.16,0 -12.48,4.512 -12.48,13.632 v 53.76 c 0,8.832 4.224,13.344 12.672,13.344 8.256,0 11.808,-4.224 11.808,-13.536 v -12.864 c 0,-2.4 -1.632,-4.032 -4.032,-4.032 -2.4,0 -4.032,1.632 -4.032,4.032 z m 45.59991,-62.4 c -0.384,-2.784 -2.304,-4.608 -5.76,-4.608 -3.456,0 -5.28,1.824 -5.664,4.608 l -8.832,68.256 c -0.192,1.536 -0.288,2.208 -0.288,2.88 0,2.976 2.208,4.416 4.224,4.416 1.728,0 3.84,-1.248 4.224,-3.84 l 1.152,-8.928 h 9.696 l 1.056,8.832 c 0.288,2.688 2.496,3.936 4.32,3.936 2.016,0 4.32,-1.44 4.32,-4.512 0,-0.672 -0.096,-1.344 -0.288,-2.976 z m -10.08,54.624 c 1.536,-11.616 2.88,-24.096 4.032,-36.48 1.152,12.384 2.4,24.48 3.84,36.48 z m 61.43996,15.84 c 0,-2.688 -1.824,-4.512 -4.512,-4.512 h -12 l 15.264,-59.328 c 0.576,-2.4 0.672,-2.976 0.672,-6.72 0,-2.304 -1.632,-3.936 -3.936,-3.936 h -16.8 c -2.592,0 -4.32,1.728 -4.32,4.32 0,2.592 1.728,4.32 4.32,4.32 h 11.904 l -15.648,58.752 c -0.576,2.304 -0.672,2.88 -0.672,7.104 0,2.688 1.824,4.512 4.512,4.512 h 16.704 c 2.688,0 4.512,-1.824 4.512,-4.512 z m 36.67203,-70.464 c -0.384,-2.784 -2.304,-4.608 -5.76,-4.608 -3.456,0 -5.28,1.824 -5.664,4.608 l -8.832,68.256 c -0.192,1.536 -0.288,2.208 -0.288,2.88 0,2.976 2.208,4.416 4.224,4.416 1.728,0 3.84,-1.248 4.224,-3.84 l 1.152,-8.928 h 9.696 l 1.056,8.832 c 0.288,2.688 2.496,3.936 4.32,3.936 2.016,0 4.32,-1.44 4.32,-4.512 0,-0.672 -0.096,-1.344 -0.288,-2.976 z m -10.08,54.624 c 1.536,-11.616 2.88,-24.096 4.032,-36.48 1.152,12.384 2.4,24.48 3.84,36.48 z m 53.18399,6.912 c 0,3.072 -1.248,4.608 -3.84,4.608 h -3.648 v -61.248 h 3.648 c 2.592,0 3.84,1.536 3.84,4.608 z m -3.84,13.44 c 8.448,0 12.672,-4.512 12.672,-13.44 v -52.032 c 0,-8.448 -4.224,-13.536 -12.672,-13.536 h -7.2 c -3.16803,0 -5.28003,2.112 -5.28003,5.28 v 68.448 c 0,3.168 2.112,5.28 5.28003,5.28 z m 31.3919,-12.576 c 0,8.928 4.224,13.44 12.576,13.44 8.448,0 12.672,-4.512 12.672,-13.44 v -53.856 c 0,-8.928 -4.224,-13.44 -12.672,-13.44 -8.352,0 -12.576,4.512 -12.576,13.44 z m 16.416,0 c 0,3.072 -1.248,4.608 -3.84,4.608 -2.496,0 -3.744,-1.536 -3.744,-4.608 v -53.856 c 0,-2.976 1.248,-4.512 3.744,-4.512 2.592,0 3.84,1.536 3.84,4.512 z m 45.216,-36.096 c 0,3.36 -1.632,5.088 -4.8,5.088 h -3.456 v -26.496 h 3.36 c 4.224,0 4.896,2.208 4.896,7.104 z m -8.256,13.152 h 3.648 c 4.032,28.8 4.032,30.912 4.224,32.064 0.48,2.88 2.496,4.032 4.704,4.032 2.4,0 4.704,-1.44 4.704,-4.224 0,-0.576 -0.096,-1.824 -0.288,-2.976 -2.304,-16.128 -2.976,-20.064 -4.896,-30.72 3.552,-2.016 5.184,-5.28 5.184,-11.424 v -16.032 c 0,-10.368 -4.704,-14.208 -13.92,-14.208 h -7.008 c -3.168,0 -5.28,2.112 -5.28,5.28 v 69.792 c 0,2.688 1.824,4.512 4.512,4.512 2.592,0 4.416,-1.824 4.416,-4.512 z"
       id="text3"
       style="-inkscape-font-specification:'Steelfish Rounded';fill:#ffffff;fill-opacity:0.701961;stroke-width:4.51067;stroke-linejoin:bevel;stroke-opacity:0.611765;paint-order:stroke markers fill"
       aria-label="C A Z A D O R" />
    <path
       d="m 776.90611,742.89407 c 0,2.98926 -1.66446,4.4839 -4.86538,4.4839 -3.32879,0 -4.99325,-1.49464 -4.99325,-4.4839 v -52.40559 c 0,-2.98927 1.66446,-4.39049 5.1214,-4.39049 3.45695,0 4.73723,1.49463 4.73723,4.39049 v 10.2756 c 0,2.33537 2.17652,3.92342 5.37744,3.92342 3.20091,0 5.37743,-1.58805 5.37743,-3.92342 v -10.2756 c 0,-8.87439 -5.24942,-13.07805 -16.00429,-13.07805 -10.88295,0 -16.64451,4.39049 -16.64451,13.26488 v 52.31217 c 0,8.59414 5.63354,12.98463 16.90054,12.98463 11.01104,0 15.74826,-4.11024 15.74826,-13.17146 V 730.2831 c 0,-2.33537 -2.17652,-3.92342 -5.37743,-3.92342 -3.20092,0 -5.37744,1.58805 -5.37744,3.92342 z m 17.79678,0 c 0,8.68755 5.63346,13.07804 16.77252,13.07804 11.26707,0 16.90054,-4.39049 16.90054,-13.07804 v -52.40559 c 0,-8.68756 -5.63347,-13.07805 -16.90054,-13.07805 -11.13906,0 -16.77252,4.39049 -16.77252,13.07805 z m 21.89393,0 c 0,2.98926 -1.66447,4.4839 -5.12141,4.4839 -3.32893,0 -4.99339,-1.49464 -4.99339,-4.4839 v -52.40559 c 0,-2.89586 1.66446,-4.39049 4.99339,-4.39049 3.45694,0 5.12141,1.49463 5.12141,4.39049 z m 49.93352,7.94024 c 0,-2.61561 -2.30454,-4.29708 -5.88963,-4.29708 h -12.16318 v -64.54948 c 0,-2.61561 -2.30467,-4.29707 -5.88963,-4.29707 -3.58496,0 -5.88963,1.68146 -5.88963,4.29707 v 68.00582 c 0,3.08269 2.81673,5.13781 7.0419,5.13781 h 16.90054 c 3.58509,0 5.88963,-1.68147 5.88963,-4.29707 z m 34.82533,0 c 0,-2.61561 -2.30454,-4.29708 -5.8895,-4.29708 h -12.16331 v -64.54948 c 0,-2.61561 -2.30467,-4.29707 -5.88963,-4.29707 -3.58496,0 -5.88964,1.68146 -5.88964,4.29707 v 68.00582 c 0,3.08269 2.81674,5.13781 7.04191,5.13781 h 16.90067 c 3.58496,0 5.8895,-1.68147 5.8895,-4.29707 z m 34.82532,0 c 0,-2.61561 -2.30453,-4.29708 -5.88949,-4.29708 h -12.16331 v -26.2495 h 6.40169 c 3.71297,0 5.50545,-1.49463 5.50545,-4.39048 0,-2.89586 -1.79248,-4.29707 -5.50545,-4.29707 h -6.40169 v -24.66146 h 11.5231 c 3.45694,0 5.88963,-1.77488 5.88963,-4.39048 0,-2.5222 -2.43269,-4.29708 -5.88963,-4.29708 h -16.26047 c -4.22503,0 -7.0419,2.05513 -7.0419,5.13781 v 66.6046 c 0,3.08269 2.81687,5.13781 7.0419,5.13781 h 16.90068 c 3.58496,0 5.88949,-1.68147 5.88949,-4.29707 z m 27.27137,-7.94024 c 0,2.98926 -1.66433,4.4839 -4.86524,4.4839 -3.32893,0 -4.99339,-1.49464 -4.99339,-4.4839 v -52.40559 c 0,-2.98927 1.66446,-4.39049 5.1214,-4.39049 3.45695,0 4.73723,1.49463 4.73723,4.39049 v 10.2756 c 0,2.33537 2.17666,3.92342 5.37758,3.92342 3.20077,0 5.37743,-1.58805 5.37743,-3.92342 v -10.2756 c 0,-8.87439 -5.24942,-13.07805 -16.00429,-13.07805 -10.88303,0 -16.64451,4.39049 -16.64451,13.26488 v 52.31217 c 0,8.59414 5.63346,12.98463 16.90053,12.98463 11.01091,0 15.74827,-4.11024 15.74827,-13.17146 V 730.2831 c 0,-2.33537 -2.17666,-3.92342 -5.37743,-3.92342 -3.20092,0 -5.37758,1.58805 -5.37758,3.92342 z m 35.9776,8.50072 v -64.45607 h 5.88964 c 3.9691,0 5.8896,-1.40122 5.8896,-4.20365 0,-2.98927 -1.9205,-4.48391 -5.8896,-4.48391 h -23.43039 c -3.969,0 -6.01765,1.49464 -6.01765,4.48391 0,2.80243 2.04865,4.20365 6.01765,4.20365 h 5.76162 v 64.45607 c 0,2.61561 2.30467,4.29708 5.88963,4.29708 3.58496,0 5.8895,-1.68147 5.8895,-4.29708 z m 28.80794,0 v -69.40704 c 0,-2.61561 -2.3047,-4.29707 -5.8896,-4.29707 -3.585,0 -5.8895,1.68146 -5.8895,4.29707 v 69.40704 c 0,2.61561 2.3045,4.29708 5.8895,4.29708 3.5849,0 5.8896,-1.68147 5.8896,-4.29708 z m 8.7062,-8.50072 c 0,8.68755 5.6336,13.07804 16.7726,13.07804 11.267,0 16.9006,-4.39049 16.9006,-13.07804 v -52.40559 c 0,-8.68756 -5.6336,-13.07805 -16.9006,-13.07805 -11.139,0 -16.7726,4.39049 -16.7726,13.07805 z m 21.894,0 c 0,2.98926 -1.6645,4.4839 -5.1214,4.4839 -3.3288,0 -4.9933,-1.49464 -4.9933,-4.4839 v -52.40559 c 0,-2.89586 1.6645,-4.39049 4.9933,-4.39049 3.4569,0 5.1214,1.49463 5.1214,4.39049 z m 56.5914,8.59414 v -70.15436 c 0,-2.14854 -2.0485,-3.64317 -4.9933,-3.64317 -3.0729,0 -5.1214,1.49463 -5.1214,3.64317 v 23.63389 c 0,8.59414 -0.1275,17.09487 0.256,26.06267 -3.0727,-12.51755 -6.0176,-23.63389 -12.1633,-49.13608 -0.6402,-2.52219 -3.0728,-4.20365 -7.6821,-4.20365 -4.4812,0 -7.1699,2.05512 -7.1699,5.04439 v 69.22021 c 0,2.24195 2.0486,3.73659 5.1214,3.73659 2.9447,0 4.9934,-1.49464 4.9934,-3.73659 v -16.72121 c 0,-10.55585 0.1274,-21.67219 -0.2562,-32.22804 3.457,11.77024 7.6822,25.68902 14.34,48.66901 0.7682,2.52219 3.3289,4.01683 6.7859,4.01683 h 0.1274 c 3.457,0 5.7615,-1.68147 5.7615,-4.20366 z"
       id="text2-6"
       style="-inkscape-font-specification:'Steelfish Rounded';fill:#ffffff;fill-opacity:0.701961;stroke-width:3.0439;stroke-linejoin:bevel;stroke-opacity:0.611765;paint-order:stroke markers fill"
       aria-label="COLLECTION" />
    <path
       d="m 764.50657,668.03947 c 0,-0.76109 -0.48927,-1.25037 -1.25037,-1.25037 h -3.50646 v -1.57655 c 0,-2.01146 0.21745,-2.96282 2.2561,-5.78974 1.54936,-2.17455 2.33764,-3.99574 2.33764,-6.25184 v -2.60946 c 0,-2.71819 -1.196,-3.88701 -3.58801,-3.88701 -2.39201,0 -3.53365,1.14164 -3.53365,3.88701 v 2.79973 c 0,0.7611 0.48928,1.25037 1.25037,1.25037 0.76109,0 1.25037,-0.48927 1.25037,-1.25037 v -2.82691 c 0,-0.89701 0.35336,-1.33192 1.03291,-1.33192 0.70673,0 1.06009,0.43491 1.06009,1.33192 v 2.392 c 0,2.09301 -0.38054,2.90847 -2.50073,5.89848 -1.82119,2.55509 -2.09301,3.72392 -2.09301,6.38774 v 2.58228 c 0,0.89701 0.598,1.49501 1.49501,1.49501 h 4.53937 c 0.7611,0 1.25037,-0.48928 1.25037,-1.25037 z m 4.97427,-2.31046 c 0,2.50073 1.14164,3.80546 3.66955,3.80546 2.52792,0 3.66956,-1.30473 3.66956,-3.80546 v -15.24905 c 0,-2.50073 -1.14164,-3.80546 -3.66956,-3.80546 -2.52791,0 -3.66955,1.30473 -3.66955,3.80546 z m 4.86556,0.0544 c 0,0.84264 -0.40773,1.27755 -1.19601,1.27755 -0.78827,0 -1.16882,-0.43491 -1.16882,-1.27755 v -15.35777 c 0,-0.84264 0.38055,-1.27755 1.16882,-1.27755 0.78828,0 1.19601,0.43491 1.19601,1.27755 z m 14.92286,2.2561 c 0,-0.76109 -0.48927,-1.25037 -1.25037,-1.25037 h -3.50646 v -1.57655 c 0,-2.01146 0.21746,-2.96282 2.2561,-5.78974 1.54937,-2.17455 2.33764,-3.99574 2.33764,-6.25184 v -2.60946 c 0,-2.71819 -1.196,-3.88701 -3.58801,-3.88701 -2.39201,0 -3.53365,1.14164 -3.53365,3.88701 v 2.79973 c 0,0.7611 0.48928,1.25037 1.25037,1.25037 0.76109,0 1.25037,-0.48927 1.25037,-1.25037 v -2.82691 c 0,-0.89701 0.35336,-1.33192 1.03291,-1.33192 0.70673,0 1.06009,0.43491 1.06009,1.33192 v 2.392 c 0,2.09301 -0.38054,2.90847 -2.50073,5.89848 -1.82119,2.55509 -2.09301,3.72392 -2.09301,6.38774 v 2.58228 c 0,0.89701 0.598,1.49501 1.49501,1.49501 h 4.53937 c 0.7611,0 1.25037,-0.48928 1.25037,-1.25037 z m 6.60518,-5.57229 c 1.38628,-4.43065 2.06583,-7.04011 2.71819,-9.29621 -0.0815,2.22892 -0.13591,4.94711 -0.13591,9.29621 z m 4.91992,5.81693 v -3.4521 h 0.29901 c 0.62518,0 0.95136,-0.40773 0.95136,-1.19601 0,-0.78827 -0.32618,-1.16882 -0.95136,-1.16882 h -0.29901 V 647.9249 c 0,-0.78827 -0.38054,-1.16882 -1.16882,-1.16882 -0.86982,0 -1.33191,0.43491 -1.52218,1.0601 l -4.24038,14.1074 c -0.13591,0.48928 -0.21746,1.0601 -0.21746,1.73964 0,0.78828 0.35337,1.16883 1.08728,1.16883 h 3.72392 v 3.4521 c 0,0.78827 0.38055,1.16882 1.16882,1.16882 0.78828,0 1.16882,-0.38055 1.16882,-1.16882 z"
       id="text6"
       style="-inkscape-font-specification:'Steelfish Rounded';fill:#ffffff;fill-opacity:0.701961;stroke-width:1.27717;stroke-linejoin:bevel;stroke-opacity:0.611765;paint-order:stroke markers fill"
       aria-label="2 0 2 4" />
  </g>
</svg>
