<?xml version="1.0" encoding="UTF-8" standalone="no"?>
<!-- Created with Inkscape (http://www.inkscape.org/) -->

<svg
   width="640.24481"
   height="80.736023"
   viewBox="0 0 640.24481 80.736023"
   version="1.1"
   id="svg1"
   inkscape:export-filename="logo.svg"
   inkscape:export-xdpi="300"
   inkscape:export-ydpi="300"
   sodipodi:docname="logo.svg"
   inkscape:version="1.3 (0e150ed6c4, 2023-07-21)"
   xmlns:inkscape="http://www.inkscape.org/namespaces/inkscape"
   xmlns:sodipodi="http://sodipodi.sourceforge.net/DTD/sodipodi-0.dtd"
   xmlns="http://www.w3.org/2000/svg"
   xmlns:svg="http://www.w3.org/2000/svg">
  <sodipodi:namedview
     id="namedview1"
     pagecolor="#ffffff"
     bordercolor="#000000"
     borderopacity="0.25"
     inkscape:showpageshadow="2"
     inkscape:pageopacity="0.0"
     inkscape:pagecheckerboard="0"
     inkscape:deskcolor="#d1d1d1"
     inkscape:document-units="px"
     showguides="true"
     inkscape:zoom="1.6212548"
     inkscape:cx="340.47701"
     inkscape:cy="68.773889"
     inkscape:window-width="1920"
     inkscape:window-height="991"
     inkscape:window-x="-9"
     inkscape:window-y="-9"
     inkscape:window-maximized="1"
     inkscape:current-layer="layer1">
    <sodipodi:guide
       position="64.512598,1012.9797"
       orientation="0,-1"
       id="guide4"
       inkscape:locked="false" />
  </sodipodi:namedview>
  <defs
     id="defs1" />
  <g
     inkscape:label="Layer 1"
     inkscape:groupmode="layer"
     id="layer1"
     transform="translate(-618.28375,-442.64539)">
    <path
       d="m 628.98816,490.02275 v -40.14151 h 2.6761 c 1.80345,0 2.6761,-0.87264 2.6761,-2.61793 0,-1.86163 -0.87265,-2.79245 -2.6761,-2.79245 h -10.64623 c -1.80346,0 -2.73428,0.93082 -2.73428,2.79245 0,1.74529 0.93082,2.61793 2.73428,2.61793 h 2.61792 v 40.14151 c 0,1.62893 1.04717,2.6761 2.6761,2.6761 1.62894,0 2.67611,-1.04717 2.67611,-2.6761 z m 22.86326,0 V 446.7979 c 0,-1.62893 -1.04717,-2.6761 -2.6761,-2.6761 -1.62893,0 -2.6761,1.04717 -2.6761,2.6761 v 18.50001 h -4.53774 V 446.7979 c 0,-1.62893 -1.04717,-2.6761 -2.6761,-2.6761 -1.62893,0 -2.6761,1.04717 -2.6761,2.6761 v 43.22485 c 0,1.62893 1.04717,2.6761 2.6761,2.6761 1.62893,0 2.6761,-1.04717 2.6761,-2.6761 v -19.37264 h 4.53774 v 19.37264 c 0,1.62893 1.04717,2.6761 2.6761,2.6761 1.62893,0 2.6761,-1.04717 2.6761,-2.6761 z m 17.68554,-0.34906 c 0,-1.62893 -1.04717,-2.6761 -2.6761,-2.6761 h -5.52673 v -16.34748 h 2.90881 c 1.68711,0 2.50157,-0.93082 2.50157,-2.73428 0,-1.80346 -0.81446,-2.6761 -2.50157,-2.6761 h -2.90881 v -15.35849 h 5.23585 c 1.57076,0 2.6761,-1.10535 2.6761,-2.73428 0,-1.57075 -1.10534,-2.6761 -2.6761,-2.6761 h -7.38836 c -1.91981,0 -3.19969,1.27988 -3.19969,3.19969 v 41.47956 c 0,1.91981 1.27988,3.19968 3.19969,3.19968 h 7.67924 c 1.62893,0 2.6761,-1.04717 2.6761,-2.6761 z"
       id="text2"
       style="-inkscape-font-specification:'Steelfish Rounded';fill-opacity:0.701961;stroke-width:2.73347;stroke-linejoin:bevel;stroke-opacity:0.611765;paint-order:stroke markers fill"
       aria-label="THE " />
    <path
       d="m 703.56227,509.9414 c 0,3.072 -1.248,4.608 -3.648,4.608 -2.496,0 -3.744,-1.536 -3.744,-4.608 v -53.856 c 0,-3.072 1.248,-4.512 3.84,-4.512 2.592,0 3.552,1.536 3.552,4.512 v 10.56 c 0,2.4 1.632,4.032 4.032,4.032 2.4,0 4.032,-1.632 4.032,-4.032 v -10.56 c 0,-9.12 -3.936,-13.44 -12,-13.44 -8.16,0 -12.48,4.512 -12.48,13.632 v 53.76 c 0,8.832 4.224,13.344 12.672,13.344 8.256,0 11.808,-4.224 11.808,-13.536 v -12.864 c 0,-2.4 -1.632,-4.032 -4.032,-4.032 -2.4,0 -4.032,1.632 -4.032,4.032 z m 45.59991,-62.4 c -0.384,-2.784 -2.304,-4.608 -5.76,-4.608 -3.456,0 -5.28,1.824 -5.664,4.608 l -8.832,68.256 c -0.192,1.536 -0.288,2.208 -0.288,2.88 0,2.976 2.208,4.416 4.224,4.416 1.728,0 3.84,-1.248 4.224,-3.84 l 1.152,-8.928 h 9.696 l 1.056,8.832 c 0.288,2.688 2.496,3.936 4.32,3.936 2.016,0 4.32,-1.44 4.32,-4.512 0,-0.672 -0.096,-1.344 -0.288,-2.976 z m -10.08,54.624 c 1.536,-11.616 2.88,-24.096 4.032,-36.48 1.152,12.384 2.4,24.48 3.84,36.48 z m 61.43996,15.84 c 0,-2.688 -1.824,-4.512 -4.512,-4.512 h -12 l 15.264,-59.328 c 0.576,-2.4 0.672,-2.976 0.672,-6.72 0,-2.304 -1.632,-3.936 -3.936,-3.936 h -16.8 c -2.592,0 -4.32,1.728 -4.32,4.32 0,2.592 1.728,4.32 4.32,4.32 h 11.904 l -15.648,58.752 c -0.576,2.304 -0.672,2.88 -0.672,7.104 0,2.688 1.824,4.512 4.512,4.512 h 16.704 c 2.688,0 4.512,-1.824 4.512,-4.512 z m 36.67203,-70.464 c -0.384,-2.784 -2.304,-4.608 -5.76,-4.608 -3.456,0 -5.28,1.824 -5.664,4.608 l -8.832,68.256 c -0.192,1.536 -0.288,2.208 -0.288,2.88 0,2.976 2.208,4.416 4.224,4.416 1.728,0 3.84,-1.248 4.224,-3.84 l 1.152,-8.928 h 9.696 l 1.056,8.832 c 0.288,2.688 2.496,3.936 4.32,3.936 2.016,0 4.32,-1.44 4.32,-4.512 0,-0.672 -0.096,-1.344 -0.288,-2.976 z m -10.08,54.624 c 1.536,-11.616 2.88,-24.096 4.032,-36.48 1.152,12.384 2.4,24.48 3.84,36.48 z m 53.18396,6.912 c 0,3.072 -1.248,4.608 -3.84,4.608 h -3.648 v -61.248 h 3.648 c 2.592,0 3.84,1.536 3.84,4.608 z m -3.84,13.44 c 8.448,0 12.672,-4.512 12.672,-13.44 v -52.032 c 0,-8.448 -4.224,-13.536 -12.672,-13.536 h -7.2 c -3.168,0 -5.28,2.112 -5.28,5.28 v 68.448 c 0,3.168 2.112,5.28 5.28,5.28 z m 31.39193,-12.576 c 0,8.928 4.224,13.44 12.576,13.44 8.448,0 12.672,-4.512 12.672,-13.44 v -53.856 c 0,-8.928 -4.224,-13.44 -12.672,-13.44 -8.352,0 -12.576,4.512 -12.576,13.44 z m 16.416,0 c 0,3.072 -1.248,4.608 -3.84,4.608 -2.496,0 -3.744,-1.536 -3.744,-4.608 v -53.856 c 0,-2.976 1.248,-4.512 3.744,-4.512 2.592,0 3.84,1.536 3.84,4.512 z m 45.21602,-36.096 c 0,3.36 -1.632,5.088 -4.8,5.088 h -3.456 v -26.496 h 3.36 c 4.224,0 4.896,2.208 4.896,7.104 z m -8.256,13.152 h 3.648 c 4.032,28.8 4.032,30.912 4.224,32.064 0.48,2.88 2.496,4.032 4.704,4.032 2.4,0 4.704,-1.44 4.704,-4.224 0,-0.576 -0.096,-1.824 -0.288,-2.976 -2.304,-16.128 -2.976,-20.064 -4.896,-30.72 3.552,-2.016 5.184,-5.28 5.184,-11.424 v -16.032 c 0,-10.368 -4.704,-14.208 -13.92,-14.208 h -7.008 c -3.168,0 -5.28,2.112 -5.28,5.28 v 69.792 c 0,2.688 1.824,4.512 4.512,4.512 2.592,0 4.416,-1.824 4.416,-4.512 z"
       id="text3"
       style="-inkscape-font-specification:'Steelfish Rounded';fill-opacity:0.701961;stroke-width:4.51067;stroke-linejoin:bevel;stroke-opacity:0.611765;paint-order:stroke markers fill"
       aria-label="C A Z A D O R" />
    <path
       d="m 1011.5405,509.74133 c 0,2.98926 -1.2144,4.4839 -3.5498,4.4839 -2.4287,0 -3.6431,-1.49464 -3.6431,-4.4839 v -52.40559 c 0,-2.98927 1.2144,-4.39049 3.7366,-4.39049 2.5222,0 3.4563,1.49463 3.4563,4.39049 v 10.2756 c 0,2.33537 1.588,3.92342 3.9234,3.92342 2.3354,0 3.9234,-1.58805 3.9234,-3.92342 v -10.2756 c 0,-8.87439 -3.83,-13.07805 -11.6768,-13.07805 -7.94024,0 -12.1439,4.39049 -12.1439,13.26488 v 52.31217 c 0,8.59414 4.11025,12.98463 12.3307,12.98463 8.0337,0 11.49,-4.11024 11.49,-13.17146 v -12.51755 c 0,-2.33537 -1.588,-3.92342 -3.9234,-3.92342 -2.3354,0 -3.9234,1.58805 -3.9234,3.92342 z m 12.9846,0 c 0,8.68755 4.1102,13.07804 12.2373,13.07804 8.2205,0 12.3307,-4.39049 12.3307,-13.07804 v -52.40559 c 0,-8.68756 -4.1102,-13.07805 -12.3307,-13.07805 -8.1271,0 -12.2373,4.39049 -12.2373,13.07805 z m 15.9739,0 c 0,2.98926 -1.2144,4.4839 -3.7366,4.4839 -2.4288,0 -3.6432,-1.49464 -3.6432,-4.4839 v -52.40559 c 0,-2.89586 1.2144,-4.39049 3.6432,-4.39049 2.5222,0 3.7366,1.49463 3.7366,4.39049 z m 36.4317,7.94024 c 0,-2.61561 -1.6814,-4.29708 -4.2971,-4.29708 h -8.8743 v -64.54948 c 0,-2.61561 -1.6815,-4.29707 -4.2971,-4.29707 -2.6156,0 -4.2971,1.68146 -4.2971,4.29707 v 68.00582 c 0,3.08269 2.0551,5.13781 5.1378,5.13781 h 12.3307 c 2.6157,0 4.2971,-1.68147 4.2971,-4.29707 z m 25.4087,0 c 0,-2.61561 -1.6814,-4.29708 -4.297,-4.29708 h -8.8744 v -64.54948 c 0,-2.61561 -1.6815,-4.29707 -4.2971,-4.29707 -2.6156,0 -4.2971,1.68146 -4.2971,4.29707 v 68.00582 c 0,3.08269 2.0551,5.13781 5.1378,5.13781 h 12.3308 c 2.6156,0 4.297,-1.68147 4.297,-4.29707 z m 25.4087,0 c 0,-2.61561 -1.6814,-4.29708 -4.297,-4.29708 h -8.8744 v -26.2495 h 4.6707 c 2.709,0 4.0168,-1.49463 4.0168,-4.39048 0,-2.89586 -1.3078,-4.29707 -4.0168,-4.29707 h -4.6707 v -24.66146 h 8.4073 c 2.5222,0 4.2971,-1.77488 4.2971,-4.39048 0,-2.5222 -1.7749,-4.29708 -4.2971,-4.29708 h -11.8637 c -3.0826,0 -5.1378,2.05513 -5.1378,5.13781 v 66.6046 c 0,3.08269 2.0552,5.13781 5.1378,5.13781 h 12.3308 c 2.6156,0 4.297,-1.68147 4.297,-4.29707 z m 19.8973,-7.94024 c 0,2.98926 -1.2143,4.4839 -3.5497,4.4839 -2.4288,0 -3.6432,-1.49464 -3.6432,-4.4839 v -52.40559 c 0,-2.98927 1.2144,-4.39049 3.7366,-4.39049 2.5222,0 3.4563,1.49463 3.4563,4.39049 v 10.2756 c 0,2.33537 1.5881,3.92342 3.9235,3.92342 2.3353,0 3.9234,-1.58805 3.9234,-3.92342 v -10.2756 c 0,-8.87439 -3.83,-13.07805 -11.6768,-13.07805 -7.9403,0 -12.1439,4.39049 -12.1439,13.26488 v 52.31217 c 0,8.59414 4.1102,12.98463 12.3307,12.98463 8.0336,0 11.49,-4.11024 11.49,-13.17146 v -12.51755 c 0,-2.33537 -1.5881,-3.92342 -3.9234,-3.92342 -2.3354,0 -3.9235,1.58805 -3.9235,3.92342 z m 26.2494,8.50072 v -64.45607 h 4.2971 c 2.8959,0 4.2971,-1.40122 4.2971,-4.20365 0,-2.98927 -1.4012,-4.48391 -4.2971,-4.48391 h -17.0949 c -2.8958,0 -4.3905,1.49464 -4.3905,4.48391 0,2.80243 1.4947,4.20365 4.3905,4.20365 h 4.2037 v 64.45607 c 0,2.61561 1.6815,4.29708 4.2971,4.29708 2.6156,0 4.297,-1.68147 4.297,-4.29708 z m 21.0184,0 v -69.40704 c 0,-2.61561 -1.6815,-4.29707 -4.2971,-4.29707 -2.6156,0 -4.297,1.68146 -4.297,4.29707 v 69.40704 c 0,2.61561 1.6814,4.29708 4.297,4.29708 2.6156,0 4.2971,-1.68147 4.2971,-4.29708 z m 6.3521,-8.50072 c 0,8.68755 4.1103,13.07804 12.2373,13.07804 8.2205,0 12.3308,-4.39049 12.3308,-13.07804 v -52.40559 c 0,-8.68756 -4.1103,-13.07805 -12.3308,-13.07805 -8.127,0 -12.2373,4.39049 -12.2373,13.07805 z m 15.9739,0 c 0,2.98926 -1.2144,4.4839 -3.7366,4.4839 -2.4287,0 -3.6431,-1.49464 -3.6431,-4.4839 v -52.40559 c 0,-2.89586 1.2144,-4.39049 3.6431,-4.39049 2.5222,0 3.7366,1.49463 3.7366,4.39049 z m 41.2893,8.59414 v -70.15436 c 0,-2.14854 -1.4946,-3.64317 -3.6431,-3.64317 -2.242,0 -3.7366,1.49463 -3.7366,3.64317 V 471.815 c 0,8.59414 -0.093,17.09487 0.1868,26.06267 -2.2419,-12.51755 -4.3905,-23.63389 -8.8744,-49.13608 -0.4671,-2.52219 -2.2419,-4.20365 -5.6049,-4.20365 -3.2695,0 -5.2312,2.05512 -5.2312,5.04439 v 69.22021 c 0,2.24195 1.4947,3.73659 3.7366,3.73659 2.1485,0 3.6432,-1.49464 3.6432,-3.73659 v -16.72121 c 0,-10.55585 0.093,-21.67219 -0.1869,-32.22804 2.5222,11.77024 5.6049,25.68902 10.4625,48.66901 0.5605,2.52219 2.4288,4.01683 4.951,4.01683 h 0.093 c 2.5222,0 4.2036,-1.68147 4.2036,-4.20366 z"
       id="text2-6"
       style="-inkscape-font-specification:'Steelfish Rounded';fill:#999999;fill-opacity:0.701961;stroke-width:2.6;stroke-linejoin:bevel;stroke-opacity:0.611765;paint-order:stroke markers fill"
       aria-label="COLLECTION" />
    <path
       d="m 630.65963,520.00598 c 0,-0.76109 -0.48927,-1.25037 -1.25037,-1.25037 h -3.50646 v -1.57655 c 0,-2.01146 0.21745,-2.96282 2.2561,-5.78974 1.54936,-2.17455 2.33764,-3.99574 2.33764,-6.25184 v -2.60946 c 0,-2.71819 -1.196,-3.88701 -3.58801,-3.88701 -2.39201,0 -3.53365,1.14164 -3.53365,3.88701 v 2.79973 c 0,0.7611 0.48928,1.25037 1.25037,1.25037 0.76109,0 1.25037,-0.48927 1.25037,-1.25037 v -2.82691 c 0,-0.89701 0.35336,-1.33192 1.03291,-1.33192 0.70673,0 1.06009,0.43491 1.06009,1.33192 v 2.392 c 0,2.09301 -0.38054,2.90847 -2.50073,5.89848 -1.82119,2.55509 -2.09301,3.72392 -2.09301,6.38774 v 2.58228 c 0,0.89701 0.598,1.49501 1.49501,1.49501 h 4.53937 c 0.7611,0 1.25037,-0.48928 1.25037,-1.25037 z m 4.97427,-2.31046 c 0,2.50073 1.14164,3.80546 3.66955,3.80546 2.52792,0 3.66956,-1.30473 3.66956,-3.80546 v -15.24905 c 0,-2.50073 -1.14164,-3.80546 -3.66956,-3.80546 -2.52791,0 -3.66955,1.30473 -3.66955,3.80546 z m 4.86556,0.0544 c 0,0.84264 -0.40773,1.27755 -1.19601,1.27755 -0.78827,0 -1.16882,-0.43491 -1.16882,-1.27755 v -15.35777 c 0,-0.84264 0.38055,-1.27755 1.16882,-1.27755 0.78828,0 1.19601,0.43491 1.19601,1.27755 z m 14.92286,2.2561 c 0,-0.76109 -0.48927,-1.25037 -1.25037,-1.25037 h -3.50646 v -1.57655 c 0,-2.01146 0.21746,-2.96282 2.2561,-5.78974 1.54937,-2.17455 2.33764,-3.99574 2.33764,-6.25184 v -2.60946 c 0,-2.71819 -1.196,-3.88701 -3.58801,-3.88701 -2.39201,0 -3.53365,1.14164 -3.53365,3.88701 v 2.79973 c 0,0.7611 0.48928,1.25037 1.25037,1.25037 0.76109,0 1.25037,-0.48927 1.25037,-1.25037 v -2.82691 c 0,-0.89701 0.35336,-1.33192 1.03291,-1.33192 0.70673,0 1.06009,0.43491 1.06009,1.33192 v 2.392 c 0,2.09301 -0.38054,2.90847 -2.50073,5.89848 -1.82119,2.55509 -2.09301,3.72392 -2.09301,6.38774 v 2.58228 c 0,0.89701 0.598,1.49501 1.49501,1.49501 h 4.53937 c 0.7611,0 1.25037,-0.48928 1.25037,-1.25037 z m 6.60518,-5.57229 c 1.38628,-4.43065 2.06583,-7.04011 2.71819,-9.29621 -0.0815,2.22892 -0.13591,4.94711 -0.13591,9.29621 z m 4.91992,5.81693 v -3.4521 h 0.29901 c 0.62518,0 0.95136,-0.40773 0.95136,-1.19601 0,-0.78827 -0.32618,-1.16882 -0.95136,-1.16882 h -0.29901 v -14.54232 c 0,-0.78827 -0.38054,-1.16882 -1.16882,-1.16882 -0.86982,0 -1.33191,0.43491 -1.52218,1.0601 l -4.24038,14.1074 c -0.13591,0.48928 -0.21746,1.0601 -0.21746,1.73964 0,0.78828 0.35337,1.16883 1.08728,1.16883 h 3.72392 v 3.4521 c 0,0.78827 0.38055,1.16882 1.16882,1.16882 0.78828,0 1.16882,-0.38055 1.16882,-1.16882 z"
       id="text6"
       style="-inkscape-font-specification:'Steelfish Rounded';fill-opacity:0.701961;stroke-width:1.27717;stroke-linejoin:bevel;stroke-opacity:0.611765;paint-order:stroke markers fill"
       aria-label="2 0 2 4" />
  </g>
</svg>
